<svg xmlns="http://www.w3.org/2000/svg" viewBox="0 0 100 100">
  <!-- Body -->
  <ellipse cx="50" cy="60" rx="30" ry="25" fill="#FF9F43"/>
  <!-- Head -->
  <circle cx="50" cy="35" r="22" fill="#FF9F43"/>
  <!-- Ears -->
  <polygon points="30,20 35,35 25,35" fill="#FF9F43"/>
  <polygon points="70,20 65,35 75,35" fill="#FF9F43"/>
  <polygon points="32,22 35,32 28,32" fill="#FFB8B8"/>
  <polygon points="68,22 65,32 72,32" fill="#FFB8B8"/>
  <!-- Eyes -->
  <ellipse cx="42" cy="32" rx="5" ry="6" fill="white"/>
  <ellipse cx="58" cy="32" rx="5" ry="6" fill="white"/>
  <circle cx="43" cy="33" r="3" fill="#333"/>
  <circle cx="59" cy="33" r="3" fill="#333"/>
  <!-- Nose -->
  <ellipse cx="50" cy="42" rx="4" ry="3" fill="#FF6B6B"/>
  <!-- Mouth -->
  <path d="M46,46 Q50,50 54,46" stroke="#333" stroke-width="1.5" fill="none"/>
  <!-- Whiskers -->
  <line x1="25" y1="40" x2="38" y2="42" stroke="#333" stroke-width="1"/>
  <line x1="25" y1="45" x2="38" y2="45" stroke="#333" stroke-width="1"/>
  <line x1="62" y1="42" x2="75" y2="40" stroke="#333" stroke-width="1"/>
  <line x1="62" y1="45" x2="75" y2="45" stroke="#333" stroke-width="1"/>
  <!-- Tail -->
  <path d="M75,65 Q90,50 85,70 Q80,85 75,75" fill="#FF9F43" stroke="#FF9F43" stroke-width="8" stroke-linecap="round"/>
</svg>
