<svg xmlns="http://www.w3.org/2000/svg" viewBox="0 0 100 100">
  <!-- Body -->
  <ellipse cx="55" cy="58" rx="28" ry="24" fill="white"/>
  <!-- Wing -->
  <ellipse cx="60" cy="55" rx="15" ry="12" fill="#F5F5F5"/>
  <path d="M50,48 Q55,55 48,62 Q55,58 52,65" fill="none" stroke="#DDD" stroke-width="2"/>
  <!-- Tail feathers -->
  <path d="M80,50 L95,35 L88,50 L98,42 L88,55 L95,52 L82,58" fill="#DDD"/>
  <!-- Head -->
  <circle cx="32" cy="35" r="16" fill="white"/>
  <!-- Comb -->
  <path d="M28,20 Q32,12 36,20 Q40,12 44,20 Q48,15 45,22 L28,22 Z" fill="#FF3B30"/>
  <!-- Wattle -->
  <ellipse cx="28" cy="48" rx="4" ry="6" fill="#FF3B30"/>
  <!-- Eye -->
  <circle cx="28" cy="32" r="4" fill="white"/>
  <circle cx="29" cy="33" r="2.5" fill="#333"/>
  <!-- Beak -->
  <polygon points="18,38 28,35 28,42" fill="#FF9F43"/>
  <!-- Legs -->
  <line x1="45" y1="78" x2="45" y2="90" stroke="#FF9F43" stroke-width="3"/>
  <line x1="60" y1="78" x2="60" y2="90" stroke="#FF9F43" stroke-width="3"/>
  <!-- Feet -->
  <path d="M40,90 L45,85 L50,90" fill="none" stroke="#FF9F43" stroke-width="2"/>
  <path d="M55,90 L60,85 L65,90" fill="none" stroke="#FF9F43" stroke-width="2"/>
</svg>
