<svg xmlns="http://www.w3.org/2000/svg" viewBox="0 0 100 100">
  <!-- Body -->
  <ellipse cx="55" cy="60" rx="28" ry="22" fill="#FFD93D"/>
  <!-- Wing -->
  <ellipse cx="60" cy="58" rx="15" ry="12" fill="#E8C428"/>
  <!-- Head -->
  <circle cx="35" cy="35" r="18" fill="#FFD93D"/>
  <!-- Eye -->
  <circle cx="30" cy="32" r="5" fill="white"/>
  <circle cx="31" cy="33" r="3" fill="#333"/>
  <!-- Beak -->
  <ellipse cx="20" cy="40" rx="12" ry="6" fill="#FF9F43"/>
  <line x1="12" y1="40" x2="28" y2="40" stroke="#E8890C" stroke-width="1"/>
  <!-- Tail feathers -->
  <path d="M80,55 L92,48 L85,55 L95,52 L85,58 L92,60 L80,60" fill="#E8C428"/>
  <!-- Feet -->
  <path d="M45,80 L40,90 L50,85 L55,90 L50,80" fill="#FF9F43"/>
  <path d="M60,80 L55,90 L65,85 L70,90 L65,80" fill="#FF9F43"/>
  <!-- Cheek -->
  <circle cx="38" cy="38" r="3" fill="#FFAB76"/>
</svg>
