<svg xmlns="http://www.w3.org/2000/svg" viewBox="0 0 100 100">
  <!-- Body -->
  <ellipse cx="55" cy="60" rx="30" ry="25" fill="#A0A0A0"/>
  <!-- Head -->
  <circle cx="45" cy="40" r="25" fill="#A0A0A0"/>
  <!-- Ears -->
  <ellipse cx="22" cy="38" rx="15" ry="20" fill="#A0A0A0"/>
  <ellipse cx="22" cy="38" rx="10" ry="14" fill="#FFB8B8"/>
  <!-- Trunk -->
  <path d="M45,55 Q35,70 30,85 Q28,90 35,88 Q40,85 42,80 Q48,70 50,60" fill="#A0A0A0"/>
  <!-- Eyes -->
  <circle cx="38" cy="35" r="5" fill="white"/>
  <circle cx="52" cy="35" r="5" fill="white"/>
  <circle cx="39" cy="36" r="3" fill="#333"/>
  <circle cx="53" cy="36" r="3" fill="#333"/>
  <!-- Tusks -->
  <path d="M35,50 Q30,60 32,65" fill="none" stroke="#FFFFF0" stroke-width="4" stroke-linecap="round"/>
  <path d="M55,50 Q60,60 58,65" fill="none" stroke="#FFFFF0" stroke-width="4" stroke-linecap="round"/>
  <!-- Tail -->
  <path d="M82,65 Q90,70 88,80" fill="none" stroke="#A0A0A0" stroke-width="4" stroke-linecap="round"/>
  <ellipse cx="88" cy="82" rx="3" ry="4" fill="#666"/>
  <!-- Legs hint -->
  <ellipse cx="35" cy="85" rx="8" ry="5" fill="#888"/>
  <ellipse cx="55" cy="85" rx="8" ry="5" fill="#888"/>
  <ellipse cx="75" cy="85" rx="8" ry="5" fill="#888"/>
</svg>
