<svg xmlns="http://www.w3.org/2000/svg" viewBox="0 0 100 100">
  <!-- Body -->
  <ellipse cx="50" cy="60" rx="30" ry="22" fill="#4CAF50"/>
  <!-- Head -->
  <ellipse cx="50" cy="40" rx="28" ry="20" fill="#4CAF50"/>
  <!-- Eyes (bulging) -->
  <circle cx="35" cy="28" r="12" fill="#4CAF50"/>
  <circle cx="65" cy="28" r="12" fill="#4CAF50"/>
  <circle cx="35" cy="26" r="8" fill="white"/>
  <circle cx="65" cy="26" r="8" fill="white"/>
  <circle cx="36" cy="27" r="5" fill="#333"/>
  <circle cx="66" cy="27" r="5" fill="#333"/>
  <!-- Nostrils -->
  <circle cx="44" cy="42" r="2" fill="#2E7D32"/>
  <circle cx="56" cy="42" r="2" fill="#2E7D32"/>
  <!-- Mouth -->
  <path d="M30,50 Q50,58 70,50" stroke="#2E7D32" stroke-width="2" fill="none"/>
  <!-- Belly -->
  <ellipse cx="50" cy="65" rx="18" ry="12" fill="#81C784"/>
  <!-- Front legs -->
  <ellipse cx="25" cy="65" rx="8" ry="5" fill="#4CAF50"/>
  <ellipse cx="75" cy="65" rx="8" ry="5" fill="#4CAF50"/>
  <!-- Back legs -->
  <ellipse cx="20" cy="75" rx="12" ry="8" fill="#4CAF50"/>
  <ellipse cx="80" cy="75" rx="12" ry="8" fill="#4CAF50"/>
  <!-- Feet -->
  <ellipse cx="12" cy="80" rx="8" ry="4" fill="#4CAF50"/>
  <ellipse cx="88" cy="80" rx="8" ry="4" fill="#4CAF50"/>
  <!-- Spots -->
  <circle cx="40" cy="55" r="4" fill="#2E7D32"/>
  <circle cx="60" cy="60" r="3" fill="#2E7D32"/>
  <circle cx="45" cy="70" r="3" fill="#2E7D32"/>
</svg>
