<svg xmlns="http://www.w3.org/2000/svg" viewBox="0 0 100 100">
  <!-- Tail -->
  <path d="M70,70 Q85,80 90,70 Q95,55 85,50" fill="none" stroke="#C4A574" stroke-width="10" stroke-linecap="round"/>
  <!-- Body -->
  <ellipse cx="50" cy="55" rx="22" ry="28" fill="#C4A574"/>
  <!-- Pouch -->
  <ellipse cx="48" cy="65" rx="10" ry="12" fill="#DEB887"/>
  <path d="M40,60 Q48,55 56,60" stroke="#B8956B" stroke-width="2" fill="none"/>
  <!-- Head -->
  <ellipse cx="45" cy="25" rx="16" ry="14" fill="#C4A574"/>
  <!-- Ears -->
  <ellipse cx="32" cy="12" rx="6" ry="12" fill="#C4A574"/>
  <ellipse cx="55" cy="12" rx="6" ry="12" fill="#C4A574"/>
  <ellipse cx="32" cy="12" rx="4" ry="9" fill="#DEB887"/>
  <ellipse cx="55" cy="12" rx="4" ry="9" fill="#DEB887"/>
  <!-- Eyes -->
  <circle cx="38" cy="22" r="4" fill="white"/>
  <circle cx="50" cy="22" r="4" fill="white"/>
  <circle cx="39" cy="23" r="2.5" fill="#1a1a1a"/>
  <circle cx="51" cy="23" r="2.5" fill="#1a1a1a"/>
  <!-- Nose -->
  <ellipse cx="44" cy="32" rx="6" ry="4" fill="#8B4513"/>
  <!-- Arms -->
  <ellipse cx="30" cy="50" rx="6" ry="12" fill="#C4A574"/>
  <ellipse cx="65" cy="50" rx="6" ry="10" fill="#C4A574"/>
  <!-- Legs -->
  <ellipse cx="38" cy="82" rx="8" ry="12" fill="#C4A574"/>
  <ellipse cx="58" cy="82" rx="8" ry="12" fill="#C4A574"/>
  <!-- Feet -->
  <ellipse cx="38" cy="92" rx="12" ry="5" fill="#C4A574"/>
  <ellipse cx="58" cy="92" rx="12" ry="5" fill="#C4A574"/>
</svg>
