<svg xmlns="http://www.w3.org/2000/svg" viewBox="0 0 100 100">
  <!-- Mane -->
  <circle cx="50" cy="42" r="32" fill="#D4A534"/>
  <!-- Inner mane detail -->
  <circle cx="50" cy="42" r="28" fill="#C4951A"/>
  <!-- Body -->
  <ellipse cx="50" cy="72" rx="22" ry="18" fill="#E8B84A"/>
  <!-- Face -->
  <circle cx="50" cy="42" r="20" fill="#E8B84A"/>
  <!-- Ears -->
  <circle cx="32" cy="28" r="6" fill="#E8B84A"/>
  <circle cx="68" cy="28" r="6" fill="#E8B84A"/>
  <circle cx="32" cy="28" r="3" fill="#D4A534"/>
  <circle cx="68" cy="28" r="3" fill="#D4A534"/>
  <!-- Eyes -->
  <ellipse cx="42" cy="38" rx="5" ry="6" fill="white"/>
  <ellipse cx="58" cy="38" rx="5" ry="6" fill="white"/>
  <circle cx="43" cy="39" r="3" fill="#333"/>
  <circle cx="59" cy="39" r="3" fill="#333"/>
  <!-- Nose -->
  <ellipse cx="50" cy="48" rx="5" ry="4" fill="#333"/>
  <!-- Mouth -->
  <path d="M45,52 Q50,56 55,52" stroke="#333" stroke-width="2" fill="none"/>
  <!-- Whisker dots -->
  <circle cx="40" cy="50" r="1" fill="#333"/>
  <circle cx="38" cy="52" r="1" fill="#333"/>
  <circle cx="60" cy="50" r="1" fill="#333"/>
  <circle cx="62" cy="52" r="1" fill="#333"/>
  <!-- Tail -->
  <path d="M70,75 Q85,70 88,60" fill="none" stroke="#E8B84A" stroke-width="5" stroke-linecap="round"/>
  <ellipse cx="89" cy="58" rx="5" ry="4" fill="#D4A534"/>
</svg>
