<svg xmlns="http://www.w3.org/2000/svg" viewBox="0 0 100 100">
  <!-- Body -->
  <ellipse cx="50" cy="65" rx="22" ry="20" fill="#8B5A2B"/>
  <!-- Head -->
  <circle cx="50" cy="38" r="22" fill="#8B5A2B"/>
  <!-- Ears -->
  <circle cx="26" cy="38" r="10" fill="#8B5A2B"/>
  <circle cx="74" cy="38" r="10" fill="#8B5A2B"/>
  <circle cx="26" cy="38" r="6" fill="#DEB887"/>
  <circle cx="74" cy="38" r="6" fill="#DEB887"/>
  <!-- Face -->
  <ellipse cx="50" cy="45" rx="14" ry="12" fill="#DEB887"/>
  <!-- Eyes -->
  <circle cx="42" cy="35" r="5" fill="white"/>
  <circle cx="58" cy="35" r="5" fill="white"/>
  <circle cx="43" cy="36" r="3" fill="#333"/>
  <circle cx="59" cy="36" r="3" fill="#333"/>
  <!-- Nose -->
  <ellipse cx="50" cy="45" rx="4" ry="3" fill="#5D3A1A"/>
  <circle cx="48" cy="45" r="1.5" fill="#333"/>
  <circle cx="52" cy="45" r="1.5" fill="#333"/>
  <!-- Mouth -->
  <path d="M44,50 Q50,55 56,50" stroke="#333" stroke-width="2" fill="none"/>
  <!-- Belly -->
  <ellipse cx="50" cy="68" rx="12" ry="10" fill="#DEB887"/>
  <!-- Tail -->
  <path d="M72,70 Q90,60 85,40 Q82,30 75,35" fill="none" stroke="#8B5A2B" stroke-width="6" stroke-linecap="round"/>
</svg>
