<svg xmlns="http://www.w3.org/2000/svg" viewBox="0 0 100 100">
  <!-- Body -->
  <ellipse cx="50" cy="65" rx="25" ry="28" fill="#8B4513"/>
  <!-- Chest feathers -->
  <ellipse cx="50" cy="70" rx="15" ry="18" fill="#DEB887"/>
  <path d="M40,60 L50,75 L60,60" fill="#CD853F"/>
  <!-- Head -->
  <circle cx="50" cy="35" r="25" fill="#8B4513"/>
  <!-- Ear tufts -->
  <polygon points="28,18 35,35 25,30" fill="#8B4513"/>
  <polygon points="72,18 65,35 75,30" fill="#8B4513"/>
  <!-- Facial disc -->
  <ellipse cx="50" cy="38" rx="20" ry="18" fill="#DEB887"/>
  <!-- Eye circles -->
  <circle cx="40" cy="35" r="10" fill="#F5DEB3"/>
  <circle cx="60" cy="35" r="10" fill="#F5DEB3"/>
  <!-- Eyes -->
  <circle cx="40" cy="35" r="7" fill="#FF9F43"/>
  <circle cx="60" cy="35" r="7" fill="#FF9F43"/>
  <circle cx="40" cy="35" r="4" fill="#1a1a1a"/>
  <circle cx="60" cy="35" r="4" fill="#1a1a1a"/>
  <circle cx="41" cy="33" r="2" fill="white"/>
  <circle cx="61" cy="33" r="2" fill="white"/>
  <!-- Beak -->
  <polygon points="50,42 46,50 54,50" fill="#FF9F43"/>
  <!-- Wings -->
  <ellipse cx="25" cy="60" rx="10" ry="18" fill="#6B3510"/>
  <ellipse cx="75" cy="60" rx="10" ry="18" fill="#6B3510"/>
  <!-- Feet -->
  <path d="M38,90 L35,95 L40,92 L45,95 L42,90" fill="#FF9F43"/>
  <path d="M58,90 L55,95 L60,92 L65,95 L62,90" fill="#FF9F43"/>
</svg>
