<svg xmlns="http://www.w3.org/2000/svg" viewBox="0 0 100 100">
  <!-- Body -->
  <ellipse cx="50" cy="62" rx="28" ry="24" fill="white"/>
  <!-- Black arms/shoulders -->
  <ellipse cx="25" cy="60" rx="12" ry="10" fill="#1a1a1a"/>
  <ellipse cx="75" cy="60" rx="12" ry="10" fill="#1a1a1a"/>
  <!-- Head -->
  <circle cx="50" cy="38" r="26" fill="white"/>
  <!-- Ears -->
  <circle cx="28" cy="20" r="10" fill="#1a1a1a"/>
  <circle cx="72" cy="20" r="10" fill="#1a1a1a"/>
  <!-- Eye patches -->
  <ellipse cx="38" cy="38" rx="12" ry="10" fill="#1a1a1a" transform="rotate(-15 38 38)"/>
  <ellipse cx="62" cy="38" rx="12" ry="10" fill="#1a1a1a" transform="rotate(15 62 38)"/>
  <!-- Eyes -->
  <circle cx="38" cy="38" r="5" fill="white"/>
  <circle cx="62" cy="38" r="5" fill="white"/>
  <circle cx="39" cy="39" r="3" fill="#1a1a1a"/>
  <circle cx="63" cy="39" r="3" fill="#1a1a1a"/>
  <circle cx="40" cy="37" r="1" fill="white"/>
  <circle cx="64" cy="37" r="1" fill="white"/>
  <!-- Nose -->
  <ellipse cx="50" cy="48" rx="5" ry="4" fill="#1a1a1a"/>
  <!-- Mouth -->
  <path d="M45,52 Q50,56 55,52" stroke="#1a1a1a" stroke-width="2" fill="none"/>
  <!-- Black legs -->
  <ellipse cx="35" cy="82" rx="10" ry="6" fill="#1a1a1a"/>
  <ellipse cx="65" cy="82" rx="10" ry="6" fill="#1a1a1a"/>
</svg>
