<svg xmlns="http://www.w3.org/2000/svg" viewBox="0 0 100 100">
  <!-- Body -->
  <ellipse cx="50" cy="60" rx="32" ry="25" fill="#FFB6C1"/>
  <!-- Head -->
  <circle cx="50" cy="40" r="22" fill="#FFB6C1"/>
  <!-- Ears -->
  <ellipse cx="30" cy="25" rx="8" ry="12" fill="#FFB6C1" transform="rotate(-20 30 25)"/>
  <ellipse cx="70" cy="25" rx="8" ry="12" fill="#FFB6C1" transform="rotate(20 70 25)"/>
  <ellipse cx="30" cy="25" rx="5" ry="8" fill="#FF9999" transform="rotate(-20 30 25)"/>
  <ellipse cx="70" cy="25" rx="5" ry="8" fill="#FF9999" transform="rotate(20 70 25)"/>
  <!-- Eyes -->
  <circle cx="40" cy="38" r="5" fill="white"/>
  <circle cx="60" cy="38" r="5" fill="white"/>
  <circle cx="41" cy="39" r="3" fill="#333"/>
  <circle cx="61" cy="39" r="3" fill="#333"/>
  <!-- Snout -->
  <ellipse cx="50" cy="50" rx="12" ry="8" fill="#FF9999"/>
  <ellipse cx="46" cy="50" rx="3" ry="4" fill="#333"/>
  <ellipse cx="54" cy="50" rx="3" ry="4" fill="#333"/>
  <!-- Mouth -->
  <path d="M44,56 Q50,60 56,56" stroke="#333" stroke-width="1.5" fill="none"/>
  <!-- Tail -->
  <path d="M80,60 Q88,55 85,50 Q82,45 88,42" fill="none" stroke="#FFB6C1" stroke-width="4" stroke-linecap="round"/>
  <!-- Legs hint -->
  <ellipse cx="35" cy="85" rx="6" ry="4" fill="#FF9999"/>
  <ellipse cx="50" cy="85" rx="6" ry="4" fill="#FF9999"/>
  <ellipse cx="65" cy="85" rx="6" ry="4" fill="#FF9999"/>
</svg>
