<svg xmlns="http://www.w3.org/2000/svg" viewBox="0 0 100 100">
  <!-- Body -->
  <ellipse cx="50" cy="60" rx="30" ry="25" fill="#F5F5F5"/>
  <!-- Head -->
  <circle cx="50" cy="35" r="24" fill="#F5F5F5"/>
  <!-- Ears -->
  <circle cx="30" cy="18" r="8" fill="#F5F5F5"/>
  <circle cx="70" cy="18" r="8" fill="#F5F5F5"/>
  <circle cx="30" cy="18" r="5" fill="#E8E8E8"/>
  <circle cx="70" cy="18" r="5" fill="#E8E8E8"/>
  <!-- Snout -->
  <ellipse cx="50" cy="42" rx="10" ry="8" fill="#E8E8E8"/>
  <!-- Eyes -->
  <circle cx="40" cy="32" r="4" fill="#1a1a1a"/>
  <circle cx="60" cy="32" r="4" fill="#1a1a1a"/>
  <circle cx="41" cy="31" r="1.5" fill="white"/>
  <circle cx="61" cy="31" r="1.5" fill="white"/>
  <!-- Nose -->
  <ellipse cx="50" cy="42" rx="5" ry="4" fill="#1a1a1a"/>
  <!-- Mouth -->
  <path d="M45,48 Q50,52 55,48" stroke="#666" stroke-width="1.5" fill="none"/>
  <!-- Arms -->
  <ellipse cx="25" cy="58" rx="10" ry="8" fill="#F5F5F5"/>
  <ellipse cx="75" cy="58" rx="10" ry="8" fill="#F5F5F5"/>
  <!-- Legs -->
  <ellipse cx="35" cy="82" rx="10" ry="6" fill="#F5F5F5"/>
  <ellipse cx="65" cy="82" rx="10" ry="6" fill="#F5F5F5"/>
</svg>
