<svg xmlns="http://www.w3.org/2000/svg" viewBox="0 0 100 100">
  <!-- Body -->
  <ellipse cx="50" cy="55" rx="38" ry="20" fill="#708090"/>
  <!-- Tail fin -->
  <path d="M85,55 L98,40 L95,55 L98,70 L85,55" fill="#708090"/>
  <!-- Dorsal fin -->
  <path d="M45,35 L55,15 L60,35" fill="#708090"/>
  <!-- Pectoral fins -->
  <ellipse cx="35" cy="65" rx="12" ry="5" fill="#708090" transform="rotate(-20 35 65)"/>
  <ellipse cx="65" cy="65" rx="12" ry="5" fill="#708090" transform="rotate(20 65 65)"/>
  <!-- Head/Snout -->
  <ellipse cx="18" cy="55" rx="15" ry="12" fill="#708090"/>
  <!-- White belly -->
  <ellipse cx="45" cy="62" rx="30" ry="10" fill="#E8E8E8"/>
  <!-- Eye -->
  <circle cx="22" cy="50" r="4" fill="white"/>
  <circle cx="23" cy="51" r="2.5" fill="#1a1a1a"/>
  <!-- Gills -->
  <line x1="32" y1="48" x2="32" y2="58" stroke="#5A6A7A" stroke-width="1.5"/>
  <line x1="36" y1="47" x2="36" y2="58" stroke="#5A6A7A" stroke-width="1.5"/>
  <line x1="40" y1="47" x2="40" y2="57" stroke="#5A6A7A" stroke-width="1.5"/>
  <!-- Mouth -->
  <path d="M5,58 Q15,65 28,58" stroke="#5A6A7A" stroke-width="2" fill="none"/>
  <!-- Teeth -->
  <polygon points="8,58 9,62 10,58" fill="white"/>
  <polygon points="12,58 13,63 14,58" fill="white"/>
  <polygon points="16,58 17,63 18,58" fill="white"/>
  <polygon points="20,58 21,62 22,58" fill="white"/>
</svg>
