<svg xmlns="http://www.w3.org/2000/svg" viewBox="0 0 100 100">
  <!-- Body -->
  <ellipse cx="50" cy="62" rx="30" ry="24" fill="#FF9F43"/>
  <!-- Stripes on body -->
  <path d="M30,55 Q35,62 30,70" stroke="#1a1a1a" stroke-width="3" fill="none"/>
  <path d="M40,52 Q45,62 40,72" stroke="#1a1a1a" stroke-width="3" fill="none"/>
  <path d="M50,50 Q55,62 50,74" stroke="#1a1a1a" stroke-width="3" fill="none"/>
  <path d="M60,52 Q65,62 60,72" stroke="#1a1a1a" stroke-width="3" fill="none"/>
  <path d="M70,55 Q75,62 70,70" stroke="#1a1a1a" stroke-width="3" fill="none"/>
  <!-- Head -->
  <circle cx="50" cy="35" r="24" fill="#FF9F43"/>
  <!-- Stripes on head -->
  <path d="M35,25 L40,35" stroke="#1a1a1a" stroke-width="2"/>
  <path d="M30,30 L38,38" stroke="#1a1a1a" stroke-width="2"/>
  <path d="M65,25 L60,35" stroke="#1a1a1a" stroke-width="2"/>
  <path d="M70,30 L62,38" stroke="#1a1a1a" stroke-width="2"/>
  <path d="M50,15 L50,22" stroke="#1a1a1a" stroke-width="2"/>
  <!-- Ears -->
  <circle cx="30" cy="18" r="8" fill="#FF9F43"/>
  <circle cx="70" cy="18" r="8" fill="#FF9F43"/>
  <circle cx="30" cy="18" r="5" fill="white"/>
  <circle cx="70" cy="18" r="5" fill="white"/>
  <!-- White face -->
  <ellipse cx="50" cy="42" rx="14" ry="10" fill="white"/>
  <!-- Eyes -->
  <ellipse cx="40" cy="32" rx="5" ry="6" fill="white"/>
  <ellipse cx="60" cy="32" rx="5" ry="6" fill="white"/>
  <circle cx="41" cy="33" r="3" fill="#2E8B57"/>
  <circle cx="61" cy="33" r="3" fill="#2E8B57"/>
  <circle cx="41" cy="33" r="1.5" fill="#1a1a1a"/>
  <circle cx="61" cy="33" r="1.5" fill="#1a1a1a"/>
  <!-- Nose -->
  <polygon points="50,40 46,45 54,45" fill="#FF6B6B"/>
  <!-- Mouth -->
  <path d="M46,48 Q50,52 54,48" stroke="#1a1a1a" stroke-width="1.5" fill="none"/>
  <!-- Whisker dots -->
  <circle cx="42" cy="46" r="1" fill="#1a1a1a"/>
  <circle cx="40" cy="48" r="1" fill="#1a1a1a"/>
  <circle cx="58" cy="46" r="1" fill="#1a1a1a"/>
  <circle cx="60" cy="48" r="1" fill="#1a1a1a"/>
  <!-- Tail -->
  <path d="M78,65 Q92,55 88,70 Q85,80 90,75" fill="none" stroke="#FF9F43" stroke-width="8" stroke-linecap="round"/>
  <path d="M85,68 L88,72" stroke="#1a1a1a" stroke-width="2"/>
  <path d="M88,65 L90,70" stroke="#1a1a1a" stroke-width="2"/>
</svg>
