<svg xmlns="http://www.w3.org/2000/svg" viewBox="0 0 100 100">
  <!-- Body -->
  <ellipse cx="55" cy="58" rx="28" ry="20" fill="white"/>
  <!-- Stripes on body -->
  <path d="M35,50 Q40,58 35,66" stroke="#1a1a1a" stroke-width="4" fill="none"/>
  <path d="M45,48 Q50,58 45,68" stroke="#1a1a1a" stroke-width="4" fill="none"/>
  <path d="M55,47 Q60,58 55,69" stroke="#1a1a1a" stroke-width="4" fill="none"/>
  <path d="M65,48 Q70,58 65,68" stroke="#1a1a1a" stroke-width="4" fill="none"/>
  <path d="M75,50 Q80,58 75,66" stroke="#1a1a1a" stroke-width="4" fill="none"/>
  <!-- Neck -->
  <ellipse cx="32" cy="45" rx="12" ry="18" fill="white"/>
  <path d="M28,35 L28,55" stroke="#1a1a1a" stroke-width="3"/>
  <path d="M35,32 L35,55" stroke="#1a1a1a" stroke-width="3"/>
  <!-- Head -->
  <ellipse cx="28" cy="28" rx="15" ry="12" fill="white"/>
  <!-- Stripes on head -->
  <path d="M20,22 L20,32" stroke="#1a1a1a" stroke-width="2"/>
  <path d="M25,20 L25,32" stroke="#1a1a1a" stroke-width="2"/>
  <!-- Mane -->
  <path d="M35,18 L38,28 L35,22 L40,30" fill="#1a1a1a"/>
  <!-- Ears -->
  <ellipse cx="20" cy="18" rx="4" ry="7" fill="white"/>
  <ellipse cx="36" cy="18" rx="4" ry="7" fill="white"/>
  <path d="M19,14 L19,20" stroke="#1a1a1a" stroke-width="1.5"/>
  <path d="M35,14 L35,20" stroke="#1a1a1a" stroke-width="1.5"/>
  <!-- Eyes -->
  <circle cx="22" cy="26" r="3" fill="white"/>
  <circle cx="32" cy="26" r="3" fill="white"/>
  <circle cx="23" cy="27" r="2" fill="#1a1a1a"/>
  <circle cx="33" cy="27" r="2" fill="#1a1a1a"/>
  <!-- Snout -->
  <ellipse cx="20" cy="34" rx="8" ry="5" fill="#DDD"/>
  <circle cx="17" cy="34" r="1.5" fill="#1a1a1a"/>
  <circle cx="23" cy="34" r="1.5" fill="#1a1a1a"/>
  <!-- Legs -->
  <rect x="40" y="72" width="6" height="18" rx="2" fill="white"/>
  <rect x="55" y="72" width="6" height="18" rx="2" fill="white"/>
  <rect x="70" y="72" width="6" height="18" rx="2" fill="white"/>
</svg>
